HIERARCHY
ROOT Pelvis
{
	OFFSET 0.000000 0.000000 0.000000
	CHANNELS 6 Xposition Yposition Zposition Xrotation Yrotation Zrotation
	JOINT LeftUpLeg_virtual
	{
		OFFSET 0.000000 0.000000 0.000000
		CHANNELS 3 Xrotation Yrotation Zrotation
		JOINT LeftUpLeg
		{
			OFFSET 8.479700 -4.795502 -0.379100
			CHANNELS 3 Xrotation Yrotation Zrotation
			JOINT LeftLeg
			{
				OFFSET 0.024144 -32.555107 0.112900
				CHANNELS 3 Xrotation Yrotation Zrotation
				JOINT LeftFoot
				{
					OFFSET -0.024144 -32.638630 -3.012600
					CHANNELS 3 Xrotation Yrotation Zrotation
					JOINT LeftToeBase
					{
						OFFSET 0.970200 -13.225400 11.864200
						CHANNELS 3 Xrotation Yrotation Zrotation
						End Site
						{
							OFFSET 0 0 0
						}
					}
				}
			}
		}
	}
	JOINT RightUpLeg_virtual
	{
		OFFSET 0.000000 0.000000 0.000000
		CHANNELS 3 Xrotation Yrotation Zrotation
		JOINT RightUpLeg
		{
			OFFSET -8.479700 -4.795502 -0.379100
			CHANNELS 3 Xrotation Yrotation Zrotation
			JOINT RightLeg
			{
				OFFSET -0.023144 -32.555092 0.112900
				CHANNELS 3 Xrotation Yrotation Zrotation
				JOINT RightFoot
				{
					OFFSET 0.023144 -32.638641 -3.012700
					CHANNELS 3 Xrotation Yrotation Zrotation
					JOINT RightToeBase
					{
						OFFSET -0.970200 -13.225400 11.864200
						CHANNELS 3 Xrotation Yrotation Zrotation
						End Site
						{
							OFFSET 0 0 0
						}
					}
				}
			}
		}
	}
	JOINT Hips_virtual
	{
		OFFSET 0.000000 0.000000 0.000000
		CHANNELS 3 Xrotation Yrotation Zrotation
		JOINT Hips
		{
			OFFSET -0.000000 -0.000000 -0.000000
			CHANNELS 3 Xrotation Yrotation Zrotation
			JOINT Spine
			{
				OFFSET 0.000000 7.722000 1.166200
				CHANNELS 3 Xrotation Yrotation Zrotation
				JOINT Spine1
				{
					OFFSET 0.000000 12.024101 0.248800
					CHANNELS 3 Xrotation Yrotation Zrotation
					JOINT Spine2
					{
						OFFSET 0.000000 11.502998 -0.491200
						CHANNELS 3 Xrotation Yrotation Zrotation
						JOINT Neck_virtual
						{
							OFFSET 0.000000 0.000000 0.000000
							CHANNELS 3 Xrotation Yrotation Zrotation
							JOINT Neck
							{
								OFFSET 0.000000 18.430702 -3.123100
								CHANNELS 3 Xrotation Yrotation Zrotation
								JOINT Head
								{
									OFFSET 0.000000 9.051102 1.034000
									CHANNELS 3 Xrotation Yrotation Zrotation
									End Site
									{
										OFFSET 0 0 0
									}
								}
							}
						}
						JOINT LeftShoulder_virtual
						{
							OFFSET 0.000000 0.000000 0.000000
							CHANNELS 3 Xrotation Yrotation Zrotation
							JOINT LeftShoulder
							{
								OFFSET 6.197800 13.665199 -4.064700
								CHANNELS 3 Xrotation Yrotation Zrotation
								JOINT LeftArm
								{
									OFFSET 7.778100 -0.187103 -1.709300
									CHANNELS 3 Xrotation Yrotation Zrotation
									JOINT LeftForeArm
									{
										OFFSET 22.049376 0.000000 0.000000
										CHANNELS 3 Xrotation Yrotation Zrotation
										JOINT LeftHand
										{
											OFFSET 23.009392 0.000000 0.000000
											CHANNELS 3 Xrotation Yrotation Zrotation
											End Site
											{
												OFFSET 0 0 0
											}
										}
									}
								}
							}
						}
						JOINT RightShoulder_virtual
						{
							OFFSET 0.000000 0.000000 0.000000
							CHANNELS 3 Xrotation Yrotation Zrotation
							JOINT RightShoulder
							{
								OFFSET -6.197800 13.665199 -4.064700
								CHANNELS 3 Xrotation Yrotation Zrotation
								JOINT RightArm
								{
									OFFSET -7.778100 -0.187103 -1.709300
									CHANNELS 3 Xrotation Yrotation Zrotation
									JOINT RightForeArm
									{
										OFFSET -22.049376 0.000000 0.000000
										CHANNELS 3 Xrotation Yrotation Zrotation
										JOINT RightHand
										{
											OFFSET -23.009392 0.000000 0.000000
											CHANNELS 3 Xrotation Yrotation Zrotation
											End Site
											{
												OFFSET 0 0 0
											}
										}
									}
								}
							}
						}
					}
				}
			}
		}
	}
}
MOTION
Frames: 10
Frame Time: 0.03333333
5.624810 78.438057 -10.474333 0.000000 0.000000 0.000000 12.689349 9.251869 -0.973866 -14.286395 14.571908 9.838637 38.457544 -1.144578 1.760454 12.923514 -2.797517 -4.535947 0.000000 0.000000 0.000000 12.689349 9.251869 -0.973866 -43.557691 -6.077375 -6.743875 43.978683 -2.036293 3.129642 -7.160705 2.080330 -1.111695 0.000000 0.000000 0.000000 12.689349 9.251869 -0.973866 0.000000 0.000001 0.000000 4.503645 -1.254928 0.369529 1.564959 -2.658699 2.901395 0.000000 0.000000 0.000000 1.574393 -2.667813 2.901703 -3.216329 0.566822 2.708975 0.000000 0.000000 0.000000 1.574393 -2.667813 2.901703 0.124288 -1.541123 2.568618 -46.523857 -11.866264 -46.983895 -179.999882 -67.351847 -179.999882 0.000000 0.000000 0.000000 1.574393 -2.667813 2.901703 -1.082561 -10.880360 5.337836 -47.164905 8.617407 48.689570 -179.999937 59.788785 179.999950 0.000000 0.000000 0.000000 
5.544894 78.663651 -11.306381 0.000000 0.000000 0.000000 14.008952 9.317740 -1.499299 -21.225771 13.634354 11.475052 46.391007 -3.561684 0.203389 16.175802 -2.729162 -0.702719 0.000000 0.000000 0.000000 14.008952 9.317740 -1.499299 -44.012274 -5.946723 -5.730855 45.940201 -2.745396 2.917327 -5.024556 2.191753 -1.784122 0.000000 0.000000 0.000000 14.008952 9.317740 -1.499299 0.000000 0.000000 0.000000 3.834738 -0.953007 1.009714 3.030177 -2.333152 2.316411 0.000000 0.000000 0.000000 3.025691 -2.337049 2.305679 -3.373859 0.744376 1.970036 0.000000 0.000000 0.000000 3.025691 -2.337049 2.305679 0.226642 -3.126610 5.972565 -55.645531 -11.976973 -43.754513 -179.999868 -69.485242 -179.999868 0.000000 0.000000 0.000000 3.025691 -2.337049 2.305679 -1.787729 -12.486580 1.915336 -57.494128 10.708991 49.479922 179.999964 64.133530 -179.999964 0.000000 0.000000 0.000000 
5.447896 78.620972 -12.063572 0.000000 0.000000 0.000000 15.000222 9.142645 -1.876965 -29.188472 11.967665 13.532832 58.416060 -4.597630 -0.572336 15.159419 -2.519046 1.786774 0.000000 0.000000 0.000000 15.000222 9.142645 -1.876965 -44.113610 -5.741088 -4.718740 49.131402 -3.753969 2.735324 -5.051768 2.323126 -2.501834 0.000000 0.000000 0.000000 15.000222 9.142645 -1.876965 0.000000 0.000000 0.000000 3.410441 -0.721701 1.530445 4.511550 -2.087239 1.761739 0.000000 0.000000 0.000000 4.497385 -2.087711 1.743154 -3.569843 0.950904 1.228297 0.000000 0.000000 0.000000 4.497385 -2.087711 1.743154 0.283899 -4.204906 10.156133 -64.274792 -8.933950 -40.664194 -179.999814 -71.898123 -179.999814 0.000000 0.000000 0.000000 4.497385 -2.087711 1.743154 -2.697556 -14.467632 -1.739101 -67.851755 8.072148 51.708842 -179.999841 69.291525 179.999814 0.000000 0.000000 0.000000 
5.321502 78.281677 -12.744965 0.000000 0.000000 0.000000 15.063885 8.754492 -1.940037 -35.853558 10.332481 15.096649 70.479247 -3.270752 -0.543602 12.852143 -2.222915 4.860443 0.000000 0.000000 0.000000 15.063885 8.754492 -1.940037 -42.848458 -5.397798 -3.801472 51.848704 -5.009018 2.384195 -6.954993 2.427490 -2.688850 0.000000 0.000000 0.000000 15.063885 8.754492 -1.940037 0.000002 0.000000 0.000000 4.253699 -0.613872 1.701308 5.525779 -2.007906 1.460071 0.000000 0.000000 0.000000 5.509995 -2.001091 1.443115 -3.821970 1.179407 0.529720 0.000000 0.000000 0.000000 5.509995 -2.001091 1.443115 0.256384 -4.260463 17.532846 -70.525077 -4.093751 -37.545099 -179.999950 -75.168643 -179.999923 0.000000 0.000000 0.000000 5.509995 -2.001091 1.443115 -4.311110 -16.380942 -8.167937 -75.846655 5.206719 53.753503 -179.999745 75.375618 179.999745 0.000000 0.000000 0.000000 
5.145086 78.122902 -13.432487 0.000000 0.000000 0.000000 14.108874 8.559404 -1.507957 -40.469246 9.028097 15.927467 80.413456 -0.450223 0.057458 10.830806 -1.974571 7.568020 0.000000 0.000000 0.000000 14.108874 8.559404 -1.507957 -40.178721 -5.269668 -3.396775 52.309236 -5.817287 1.984754 -9.954969 2.545750 -2.833480 0.000000 0.000000 0.000000 14.108874 8.559404 -1.507957 0.000000 0.000000 0.000000 7.124486 -0.700153 1.416942 5.499187 -2.144529 1.294730 0.000000 0.000000 0.000000 5.487189 -2.118177 1.288723 -4.114540 1.412794 -0.075730 0.000000 0.000000 0.000000 5.487189 -2.118177 1.288723 -0.047827 -3.401639 23.495962 -73.230146 -0.621003 -33.371205 -179.999909 -79.016758 -179.999937 0.000000 0.000000 0.000000 5.487189 -2.118177 1.288723 -6.651283 -17.950362 -17.593621 -79.412929 -0.555356 55.127119 179.999978 80.335982 179.999991 0.000000 0.000000 0.000000 
4.918562 78.172623 -14.057644 0.000000 0.000000 0.000000 12.529450 8.720096 -0.532523 -43.355510 8.317498 15.989920 87.554433 1.731801 0.829157 9.650756 -0.674022 9.718184 0.000000 0.000000 0.000000 12.529450 8.720096 -0.532523 -37.042896 -5.556611 -3.696210 51.066896 -6.001106 1.613514 -13.564120 2.804519 -3.577258 0.000000 0.000000 0.000000 12.529450 8.720096 -0.532523 0.000001 0.000000 0.000000 11.205082 -1.023498 0.377271 4.641891 -2.434681 1.215398 0.000000 0.000000 0.000000 4.643789 -2.376273 1.240036 -4.441267 1.638403 -0.538824 0.000000 0.000000 0.000000 4.643789 -2.376273 1.240036 -0.549379 -2.146077 27.836933 -72.667134 1.178763 -29.946684 -179.999650 -82.576058 -179.999650 0.000000 0.000000 0.000000 4.643789 -2.376273 1.240036 -8.667458 -18.781803 -25.118371 -79.985784 -4.358372 54.700513 -179.996235 84.691860 179.996221 0.000000 0.000000 0.000000 
4.664323 78.309120 -14.509621 0.000000 0.000000 0.000000 11.160019 9.068652 0.780152 -45.386696 8.211713 15.659262 91.816259 4.517868 1.463662 9.127843 -0.746115 11.629604 0.000000 0.000000 0.000000 11.160019 9.068652 0.780152 -34.453209 -6.127124 -4.479579 49.106612 -5.795404 1.346631 -17.014148 3.252002 -4.947324 0.000000 0.000000 0.000000 11.160019 9.068652 0.780152 0.000000 0.000000 0.000000 14.768706 -1.524727 -1.558198 3.521883 -2.688987 1.316079 0.000000 0.000000 0.000000 3.553414 -2.602713 1.385590 -4.956850 1.932570 -0.670414 0.000000 0.000000 0.000000 3.553414 -2.602713 1.385590 -0.880629 -1.466801 30.607840 -70.051089 1.890789 -27.967091 -179.998666 -84.873324 -179.998666 0.000000 0.000000 0.000000 3.553414 -2.602713 1.385590 -9.692148 -18.657440 -29.251426 -78.294137 -5.316478 52.884925 179.993544 87.936350 -179.993571 0.000000 0.000000 0.000000 
4.428751 78.213013 -14.742283 0.000000 0.000000 0.000000 10.818133 9.197861 2.002467 -47.720930 8.576461 15.412803 93.914534 5.861372 1.676500 8.476384 -0.832831 12.933630 0.000000 0.000000 0.000000 10.818133 9.197861 2.002467 -33.839742 -6.489895 -5.130427 48.312752 -5.910127 0.845145 -19.821007 3.701882 -6.093013 0.000000 0.000000 0.000000 10.818133 9.197861 2.002467 0.000000 0.000000 0.000000 16.303101 -1.953344 -3.720852 2.584045 -2.735305 1.265199 0.000000 0.000000 0.000000 2.641300 -2.664698 1.362576 -5.197549 1.888820 -0.140764 0.000000 0.000000 0.000000 2.641300 -2.664698 1.362576 -0.696165 -2.093739 30.730513 -66.963284 1.059144 -26.541967 -179.999554 -85.929988 -179.999568 0.000000 0.000000 0.000000 2.641300 -2.664698 1.362576 -9.480930 -17.572714 -29.617845 -74.873244 -4.107919 50.276179 179.973504 89.507423 -179.973121 0.000000 0.000000 0.000000 
4.222148 78.415436 -14.741825 0.000000 0.000000 0.000000 11.783678 8.655842 2.741227 -50.327238 9.451346 15.579894 92.921527 5.616395 1.363707 7.846447 -0.896031 13.535867 0.000000 0.000000 0.000000 11.783678 8.655842 2.741227 -34.585240 -6.443558 -5.434782 47.186584 -6.351308 0.575986 -20.184814 3.877634 -6.552781 0.000000 0.000000 0.000000 11.783678 8.655842 2.741227 0.000001 0.000000 0.000000 15.790036 -2.006177 -5.593965 1.997771 -2.501334 1.043091 0.000000 0.000000 0.000000 2.057033 -2.477864 1.130758 -5.167735 1.704440 0.534615 0.000000 0.000000 0.000000 2.057033 -2.477864 1.130758 -0.071136 -3.775393 28.755100 -63.366889 0.458223 -25.646324 179.999991 -84.727308 -180.000005 0.000000 0.000000 0.000000 2.057033 -2.477864 1.130758 -8.255835 -15.776726 -26.523400 -69.865834 -1.985141 47.404474 179.985580 88.201798 -179.985593 0.000000 0.000000 0.000000 
4.054980 78.968117 -14.584644 0.000000 0.000000 0.000000 13.645295 7.164720 2.924265 -52.820380 10.648968 16.255767 89.031215 4.023389 0.548756 6.971937 -0.964627 13.301720 0.000000 0.000000 0.000000 13.645295 7.164720 2.924265 -36.020451 -6.279114 -5.613607 45.325098 -6.636112 1.060095 -17.924179 3.634273 -6.011441 0.000000 0.000000 0.000000 13.645295 7.164720 2.924265 0.000000 0.000000 0.000000 14.013637 -1.597912 -7.126899 1.769764 -2.049463 0.919862 0.000000 0.000000 0.000000 1.808710 -2.056911 0.974190 -5.247909 1.570778 1.033121 0.000000 0.000000 0.000000 1.808710 -2.056911 0.974190 0.436181 -5.182429 24.206812 -59.301239 -0.248134 -25.445836 -179.999786 -81.803386 -179.999786 0.000000 0.000000 0.000000 1.808710 -2.056911 0.974190 -6.512465 -13.611460 -20.925598 -64.068848 0.388899 44.479479 179.999991 84.679729 -179.999978 0.000000 0.000000 0.000000 
